<svg width="14" height="14" viewBox="0 0 14 14" fill="none" xmlns="http://www.w3.org/2000/svg">
<path fill-rule="evenodd" clip-rule="evenodd" d="M2.04178 7.52502C1.82306 7.7438 1.7002 8.04049 1.7002 8.34985C1.7002 8.65921 1.82306 8.9559 2.04178 9.17468L4.29228 11.4252H2.38361C2.2289 11.4252 2.08053 11.4866 1.97113 11.596C1.86174 11.7054 1.80028 11.8538 1.80028 12.0085C1.80028 12.1632 1.86174 12.3116 1.97113 12.421C2.08053 12.5304 2.2289 12.5919 2.38361 12.5919H11.7169C11.8717 12.5919 12.02 12.5304 12.1294 12.421C12.2388 12.3116 12.3003 12.1632 12.3003 12.0085C12.3003 11.8538 12.2388 11.7054 12.1294 11.596C12.02 11.4866 11.8717 11.4252 11.7169 11.4252H6.39111L11.9415 5.87477C12.1602 5.65599 12.2831 5.35929 12.2831 5.04993C12.2831 4.74058 12.1602 4.44388 11.9415 4.2251L9.46645 1.75002C9.35811 1.64163 9.22947 1.55565 9.08789 1.49699C8.94632 1.43833 8.79457 1.40814 8.64132 1.40814C8.48807 1.40814 8.33633 1.43833 8.19475 1.49699C8.05317 1.55565 7.92454 1.64163 7.8162 1.75002L2.04178 7.52502ZM4.56528 6.65118L2.86661 8.34985L5.3417 10.8244L7.03978 9.12627L4.56528 6.65118ZM5.39011 5.82635L7.8652 8.30143L11.1161 5.04993L8.64161 2.57485L5.39011 5.82635Z" fill="black"/>
</svg>
