<svg width="181" height="181" viewBox="0 0 181 181" fill="none" xmlns="http://www.w3.org/2000/svg">
<g filter="url(#filter0_i_701_388)">
<path d="M105.698 140.592C108.181 139.506 109.211 137.922 109.958 136.989C116.666 128.617 102.361 103.758 81.9365 89.3744C60.29 70.5278 36.4602 64.1023 29.7519 72.4792C28.6037 73.9159 27.6987 75.8729 27.3254 78.0789L14.5988 151.305C14.1576 160.23 17.5684 163.624 19.2765 165.276C22.3705 168.285 28.3831 170.836 34.6615 168.63C58.876 159.303 81.5688 151.112 105.698 140.592Z" fill="url(#paint0_linear_701_388)"/>
</g>
<path d="M105.698 140.592C108.181 139.506 109.211 137.922 109.958 136.989C116.666 128.617 102.361 103.758 81.9365 89.3744C60.29 70.5278 36.4602 64.1023 29.7519 72.4792C28.6037 73.9159 27.6987 75.8729 27.3254 78.0789L14.5988 151.305C14.1576 160.23 17.5684 163.624 19.2765 165.276C22.3705 168.285 28.3831 170.836 34.6615 168.63C58.876 159.303 81.5688 151.112 105.698 140.592Z" fill="url(#paint1_linear_701_388)"/>
<path d="M105.698 140.592C108.181 139.506 109.211 137.922 109.958 136.989C116.666 128.617 102.361 103.758 81.9365 89.3744C60.29 70.5278 36.4602 64.1023 29.7519 72.4792C28.6037 73.9159 27.6987 75.8729 27.3254 78.0789L14.5988 151.305C14.1576 160.23 17.5684 163.624 19.2765 165.276C22.3705 168.285 28.3831 170.836 34.6615 168.63C58.876 159.303 81.5688 151.112 105.698 140.592Z" fill="url(#paint2_linear_701_388)"/>
<path d="M105.698 140.592C108.181 139.506 109.211 137.922 109.958 136.989C116.666 128.617 102.361 103.758 81.9365 89.3744C60.29 70.5278 36.4602 64.1023 29.7519 72.4792C28.6037 73.9159 27.6987 75.8729 27.3254 78.0789L14.5988 151.305C14.1576 160.23 17.5684 163.624 19.2765 165.276C22.3705 168.285 28.3831 170.836 34.6615 168.63C58.876 159.303 81.5688 151.112 105.698 140.592Z" fill="url(#paint3_linear_701_388)"/>
<g filter="url(#filter1_f_701_388)">
<path d="M57.033 120.407C78.1024 137.928 100.791 145.386 107.71 137.066C114.629 128.746 103.158 107.798 82.0883 90.2771C61.0189 72.7563 38.3299 65.2977 31.4111 73.6179C24.4923 81.9381 35.9636 102.886 57.033 120.407Z" fill="url(#paint4_linear_701_388)"/>
</g>
<g filter="url(#filter2_f_701_388)">
<path d="M60.4719 115.548C79.9993 131.786 100.549 139.274 106.372 132.273C112.194 125.271 101.084 106.431 81.5562 90.1929C62.0288 73.9544 41.4788 66.4664 35.6566 73.4679C29.8343 80.4694 40.9445 99.3091 60.4719 115.548Z" fill="url(#paint5_linear_701_388)"/>
<path d="M60.4719 115.548C79.9993 131.786 100.549 139.274 106.372 132.273C112.194 125.271 101.084 106.431 81.5562 90.1929C62.0288 73.9544 41.4788 66.4664 35.6566 73.4679C29.8343 80.4694 40.9445 99.3091 60.4719 115.548Z" fill="url(#paint6_radial_701_388)"/>
<path d="M60.4719 115.548C79.9993 131.786 100.549 139.274 106.372 132.273C112.194 125.271 101.084 106.431 81.5562 90.1929C62.0288 73.9544 41.4788 66.4664 35.6566 73.4679C29.8343 80.4694 40.9445 99.3091 60.4719 115.548Z" fill="url(#paint7_radial_701_388)"/>
</g>
<path d="M84.595 97.3045C88.353 97.3045 91.3995 94.258 91.3995 90.5C91.3995 86.742 88.353 83.6956 84.595 83.6956C80.837 83.6956 77.7905 86.742 77.7905 90.5C77.7905 94.258 80.837 97.3045 84.595 97.3045Z" fill="url(#paint8_radial_701_388)"/>
<path d="M84.595 97.3045C88.353 97.3045 91.3995 94.258 91.3995 90.5C91.3995 86.742 88.353 83.6956 84.595 83.6956C80.837 83.6956 77.7905 86.742 77.7905 90.5C77.7905 94.258 80.837 97.3045 84.595 97.3045Z" fill="url(#paint9_radial_701_388)"/>
<path d="M140.45 136.367C144.208 136.367 147.255 133.32 147.255 129.562C147.255 125.804 144.208 122.758 140.45 122.758C136.692 122.758 133.646 125.804 133.646 129.562C133.646 133.32 136.692 136.367 140.45 136.367Z" fill="url(#paint10_radial_701_388)"/>
<path d="M140.45 136.367C144.208 136.367 147.255 133.32 147.255 129.562C147.255 125.804 144.208 122.758 140.45 122.758C136.692 122.758 133.646 125.804 133.646 129.562C133.646 133.32 136.692 136.367 140.45 136.367Z" fill="url(#paint11_radial_701_388)"/>
<path d="M140.45 136.367C144.208 136.367 147.255 133.32 147.255 129.562C147.255 125.804 144.208 122.758 140.45 122.758C136.692 122.758 133.646 125.804 133.646 129.562C133.646 133.32 136.692 136.367 140.45 136.367Z" fill="url(#paint12_radial_701_388)"/>
<path d="M134.749 46.4888C138.507 46.4888 141.553 43.4423 141.553 39.6843C141.553 35.9263 138.507 32.8798 134.749 32.8798C130.991 32.8798 127.944 35.9263 127.944 39.6843C127.944 43.4423 130.991 46.4888 134.749 46.4888Z" fill="url(#paint13_radial_701_388)"/>
<path d="M134.749 46.4888C138.507 46.4888 141.553 43.4423 141.553 39.6843C141.553 35.9263 138.507 32.8798 134.749 32.8798C130.991 32.8798 127.944 35.9263 127.944 39.6843C127.944 43.4423 130.991 46.4888 134.749 46.4888Z" fill="url(#paint14_radial_701_388)"/>
<path d="M56.5117 25.8491C60.2697 25.8491 63.3162 22.8026 63.3162 19.0446C63.3162 15.2866 60.2697 12.2402 56.5117 12.2402C52.7537 12.2402 49.7073 15.2866 49.7073 19.0446C49.7073 22.8026 52.7537 25.8491 56.5117 25.8491Z" fill="url(#paint15_radial_701_388)"/>
<path d="M56.5117 25.8491C60.2697 25.8491 63.3162 22.8026 63.3162 19.0446C63.3162 15.2866 60.2697 12.2402 56.5117 12.2402C52.7537 12.2402 49.7073 15.2866 49.7073 19.0446C49.7073 22.8026 52.7537 25.8491 56.5117 25.8491Z" fill="url(#paint16_radial_701_388)"/>
<path d="M56.5117 25.8491C60.2697 25.8491 63.3162 22.8026 63.3162 19.0446C63.3162 15.2866 60.2697 12.2402 56.5117 12.2402C52.7537 12.2402 49.7073 15.2866 49.7073 19.0446C49.7073 22.8026 52.7537 25.8491 56.5117 25.8491Z" fill="url(#paint17_radial_701_388)"/>
<path d="M27.874 52.671C31.6321 52.671 34.6785 49.6245 34.6785 45.8665C34.6785 42.1085 31.6321 39.0621 27.874 39.0621C24.116 39.0621 21.0696 42.1085 21.0696 45.8665C21.0696 49.6245 24.116 52.671 27.874 52.671Z" fill="url(#paint18_radial_701_388)"/>
<path d="M27.874 52.671C31.6321 52.671 34.6785 49.6245 34.6785 45.8665C34.6785 42.1085 31.6321 39.0621 27.874 39.0621C24.116 39.0621 21.0696 42.1085 21.0696 45.8665C21.0696 49.6245 24.116 52.671 27.874 52.671Z" fill="url(#paint19_radial_701_388)"/>
<path d="M90.2341 147.119C75.4939 146.09 65.1543 141.678 48.4062 127.843C33.994 115.936 26.8389 105.376 24.4519 94.6064L21.686 110.517C22.8173 116.751 27.6817 125.45 37.3143 134.161C49.9107 145.547 62.4563 153.601 74.8604 153.25C80.0014 151.246 85.1261 149.206 90.2341 147.119Z" fill="url(#paint20_radial_701_388)"/>
<path d="M59.1475 159.297C52.0602 159.693 42.4842 153.912 32.5405 145.648C24.0561 138.312 19.8705 130.343 18.9881 126.044L16.1826 142.204C16.8727 144.936 18.9938 148.652 25.1195 154.93C31.9636 161.944 38.8529 164.682 42.9367 165.457L51.6021 162.165L59.1475 159.297Z" fill="url(#paint21_radial_701_388)"/>
<g filter="url(#filter3_i_701_388)">
<path fill-rule="evenodd" clip-rule="evenodd" d="M157.826 74.1478C137.475 70.1715 125.45 79.493 121.638 83.6729C121.118 84.268 120.484 84.7534 119.774 85.1005C119.064 85.4477 118.292 85.6496 117.503 85.6945C116.714 85.7395 115.924 85.6265 115.179 85.3621C114.434 85.0978 113.75 84.6875 113.166 84.1553C112.581 83.623 112.109 82.9795 111.777 82.2625C111.445 81.5455 111.259 80.7693 111.23 79.9795C111.202 79.1897 111.331 78.4022 111.611 77.663C111.89 76.9239 112.315 76.248 112.859 75.675C118.77 69.1873 134.766 57.5354 160.106 62.4903C161.612 62.8322 162.925 63.7472 163.768 65.0413C164.61 66.3353 164.916 67.9067 164.619 69.4222C164.323 70.9376 163.448 72.278 162.18 73.1592C160.912 74.0403 159.35 74.3929 157.826 74.1421" fill="url(#paint22_radial_701_388)"/>
<path fill-rule="evenodd" clip-rule="evenodd" d="M157.826 74.1478C137.475 70.1715 125.45 79.493 121.638 83.6729C121.118 84.268 120.484 84.7534 119.774 85.1005C119.064 85.4477 118.292 85.6496 117.503 85.6945C116.714 85.7395 115.924 85.6265 115.179 85.3621C114.434 85.0978 113.75 84.6875 113.166 84.1553C112.581 83.623 112.109 82.9795 111.777 82.2625C111.445 81.5455 111.259 80.7693 111.23 79.9795C111.202 79.1897 111.331 78.4022 111.611 77.663C111.89 76.9239 112.315 76.248 112.859 75.675C118.77 69.1873 134.766 57.5354 160.106 62.4903C161.612 62.8322 162.925 63.7472 163.768 65.0413C164.61 66.3353 164.916 67.9067 164.619 69.4222C164.323 70.9376 163.448 72.278 162.18 73.1592C160.912 74.0403 159.35 74.3929 157.826 74.1421" fill="url(#paint23_radial_701_388)"/>
</g>
<path fill-rule="evenodd" clip-rule="evenodd" d="M108.057 11.7763C108.763 11.809 109.455 11.9804 110.094 12.2807C110.733 12.581 111.307 13.0043 111.782 13.5265C112.257 14.0486 112.625 14.6594 112.864 15.3238C113.104 15.9882 113.21 16.6933 113.176 17.3987C112.821 23.5144 111.914 29.5855 110.467 35.5382C108.985 41.6131 106.705 48.344 103.193 54.119C104.041 58.6214 104.064 63.9326 103.131 69.9735C102.913 71.3821 102.145 72.6466 100.995 73.4889C99.8451 74.3311 98.4078 74.6821 96.9992 74.4646C95.5906 74.247 94.326 73.4789 93.4838 72.329C92.6416 71.1791 92.2906 69.7418 92.5081 68.3332C92.7155 66.987 92.8663 65.72 92.9606 64.5322C91.9396 65.0659 90.867 65.4942 89.7592 65.8105C87.8237 66.3773 85.7876 66.513 83.7941 66.2081C81.8005 65.9032 79.898 65.1651 78.2204 64.0457C72.1456 60.0015 69.3458 51.1495 74.0461 43.9095C78.5146 37.0315 87.8361 35.1593 94.9177 40.0576C95.736 40.6232 96.5033 41.2586 97.2198 41.9637C98.351 39.1073 99.2786 36.053 100.025 32.9929C101.615 26.4769 102.276 20.3682 102.44 16.8952C102.473 16.1903 102.644 15.4988 102.944 14.86C103.244 14.2213 103.667 13.6478 104.189 13.1725C104.71 12.6972 105.32 12.3292 105.984 12.0897C106.648 11.8501 107.352 11.7436 108.057 11.7763ZM91.3882 52.162C90.5737 50.4651 89.6008 49.447 88.8089 48.8983C86.5917 47.3655 84.1595 48.0782 83.0565 49.7694C82.5163 50.6304 82.3311 51.6675 82.54 52.6623C82.7488 53.6572 83.3355 54.5322 84.1765 55.1032C84.8552 55.5557 85.7206 55.782 86.8688 55.4596C87.9096 55.1654 89.499 54.3227 91.3882 52.162Z" fill="url(#paint24_linear_701_388)"/>
<path fill-rule="evenodd" clip-rule="evenodd" d="M108.057 11.7763C108.763 11.809 109.455 11.9804 110.094 12.2807C110.733 12.581 111.307 13.0043 111.782 13.5265C112.257 14.0486 112.625 14.6594 112.864 15.3238C113.104 15.9882 113.21 16.6933 113.176 17.3987C112.821 23.5144 111.914 29.5855 110.467 35.5382C108.985 41.6131 106.705 48.344 103.193 54.119C104.041 58.6214 104.064 63.9326 103.131 69.9735C102.913 71.3821 102.145 72.6466 100.995 73.4889C99.8451 74.3311 98.4078 74.6821 96.9992 74.4646C95.5906 74.247 94.326 73.4789 93.4838 72.329C92.6416 71.1791 92.2906 69.7418 92.5081 68.3332C92.7155 66.987 92.8663 65.72 92.9606 64.5322C91.9396 65.0659 90.867 65.4942 89.7592 65.8105C87.8237 66.3773 85.7876 66.513 83.7941 66.2081C81.8005 65.9032 79.898 65.1651 78.2204 64.0457C72.1456 60.0015 69.3458 51.1495 74.0461 43.9095C78.5146 37.0315 87.8361 35.1593 94.9177 40.0576C95.736 40.6232 96.5033 41.2586 97.2198 41.9637C98.351 39.1073 99.2786 36.053 100.025 32.9929C101.615 26.4769 102.276 20.3682 102.44 16.8952C102.473 16.1903 102.644 15.4988 102.944 14.86C103.244 14.2213 103.667 13.6478 104.189 13.1725C104.71 12.6972 105.32 12.3292 105.984 12.0897C106.648 11.8501 107.352 11.7436 108.057 11.7763ZM91.3882 52.162C90.5737 50.4651 89.6008 49.447 88.8089 48.8983C86.5917 47.3655 84.1595 48.0782 83.0565 49.7694C82.5163 50.6304 82.3311 51.6675 82.54 52.6623C82.7488 53.6572 83.3355 54.5322 84.1765 55.1032C84.8552 55.5557 85.7206 55.782 86.8688 55.4596C87.9096 55.1654 89.499 54.3227 91.3882 52.162Z" fill="url(#paint25_radial_701_388)"/>
<path fill-rule="evenodd" clip-rule="evenodd" d="M108.057 11.7763C108.763 11.809 109.455 11.9804 110.094 12.2807C110.733 12.581 111.307 13.0043 111.782 13.5265C112.257 14.0486 112.625 14.6594 112.864 15.3238C113.104 15.9882 113.21 16.6933 113.176 17.3987C112.821 23.5144 111.914 29.5855 110.467 35.5382C108.985 41.6131 106.705 48.344 103.193 54.119C104.041 58.6214 104.064 63.9326 103.131 69.9735C102.913 71.3821 102.145 72.6466 100.995 73.4889C99.8451 74.3311 98.4078 74.6821 96.9992 74.4646C95.5906 74.247 94.326 73.4789 93.4838 72.329C92.6416 71.1791 92.2906 69.7418 92.5081 68.3332C92.7155 66.987 92.8663 65.72 92.9606 64.5322C91.9396 65.0659 90.867 65.4942 89.7592 65.8105C87.8237 66.3773 85.7876 66.513 83.7941 66.2081C81.8005 65.9032 79.898 65.1651 78.2204 64.0457C72.1456 60.0015 69.3458 51.1495 74.0461 43.9095C78.5146 37.0315 87.8361 35.1593 94.9177 40.0576C95.736 40.6232 96.5033 41.2586 97.2198 41.9637C98.351 39.1073 99.2786 36.053 100.025 32.9929C101.615 26.4769 102.276 20.3682 102.44 16.8952C102.473 16.1903 102.644 15.4988 102.944 14.86C103.244 14.2213 103.667 13.6478 104.189 13.1725C104.71 12.6972 105.32 12.3292 105.984 12.0897C106.648 11.8501 107.352 11.7436 108.057 11.7763ZM91.3882 52.162C90.5737 50.4651 89.6008 49.447 88.8089 48.8983C86.5917 47.3655 84.1595 48.0782 83.0565 49.7694C82.5163 50.6304 82.3311 51.6675 82.54 52.6623C82.7488 53.6572 83.3355 54.5322 84.1765 55.1032C84.8552 55.5557 85.7206 55.782 86.8688 55.4596C87.9096 55.1654 89.499 54.3227 91.3882 52.162Z" fill="url(#paint26_radial_701_388)"/>
<path fill-rule="evenodd" clip-rule="evenodd" d="M108.057 11.7763C108.763 11.809 109.455 11.9804 110.094 12.2807C110.733 12.581 111.307 13.0043 111.782 13.5265C112.257 14.0486 112.625 14.6594 112.864 15.3238C113.104 15.9882 113.21 16.6933 113.176 17.3987C112.821 23.5144 111.914 29.5855 110.467 35.5382C108.985 41.6131 106.705 48.344 103.193 54.119C104.041 58.6214 104.064 63.9326 103.131 69.9735C102.913 71.3821 102.145 72.6466 100.995 73.4889C99.8451 74.3311 98.4078 74.6821 96.9992 74.4646C95.5906 74.247 94.326 73.4789 93.4838 72.329C92.6416 71.1791 92.2906 69.7418 92.5081 68.3332C92.7155 66.987 92.8663 65.72 92.9606 64.5322C91.9396 65.0659 90.867 65.4942 89.7592 65.8105C87.8237 66.3773 85.7876 66.513 83.7941 66.2081C81.8005 65.9032 79.898 65.1651 78.2204 64.0457C72.1456 60.0015 69.3458 51.1495 74.0461 43.9095C78.5146 37.0315 87.8361 35.1593 94.9177 40.0576C95.736 40.6232 96.5033 41.2586 97.2198 41.9637C98.351 39.1073 99.2786 36.053 100.025 32.9929C101.615 26.4769 102.276 20.3682 102.44 16.8952C102.473 16.1903 102.644 15.4988 102.944 14.86C103.244 14.2213 103.667 13.6478 104.189 13.1725C104.71 12.6972 105.32 12.3292 105.984 12.0897C106.648 11.8501 107.352 11.7436 108.057 11.7763ZM91.3882 52.162C90.5737 50.4651 89.6008 49.447 88.8089 48.8983C86.5917 47.3655 84.1595 48.0782 83.0565 49.7694C82.5163 50.6304 82.3311 51.6675 82.54 52.6623C82.7488 53.6572 83.3355 54.5322 84.1765 55.1032C84.8552 55.5557 85.7206 55.782 86.8688 55.4596C87.9096 55.1654 89.499 54.3227 91.3882 52.162Z" fill="url(#paint27_radial_701_388)"/>
<path fill-rule="evenodd" clip-rule="evenodd" d="M78.2938 127.865C74.144 125.552 70.148 122.973 66.3308 120.144C72.4735 112.525 83.4523 102.537 97.7626 95.3248C121.276 83.4693 147.204 89.9005 157.775 94.0917C158.639 94.4342 159.426 94.9432 160.092 95.5899C160.759 96.2366 161.291 97.0081 161.659 97.8606C162.027 98.713 162.224 99.6297 162.238 100.558C162.252 101.487 162.083 102.409 161.74 103.272C161.398 104.135 160.889 104.922 160.242 105.589C159.596 106.255 158.824 106.787 157.972 107.156C157.119 107.524 156.202 107.72 155.274 107.734C154.346 107.748 153.423 107.579 152.56 107.237C143.505 103.645 122.328 98.7751 104.126 107.95C92.1233 114.002 83.1977 122.135 78.2938 127.865Z" fill="url(#paint28_linear_701_388)"/>
<path fill-rule="evenodd" clip-rule="evenodd" d="M78.2938 127.865C74.144 125.552 70.148 122.973 66.3308 120.144C72.4735 112.525 83.4523 102.537 97.7626 95.3248C121.276 83.4693 147.204 89.9005 157.775 94.0917C158.639 94.4342 159.426 94.9432 160.092 95.5899C160.759 96.2366 161.291 97.0081 161.659 97.8606C162.027 98.713 162.224 99.6297 162.238 100.558C162.252 101.487 162.083 102.409 161.74 103.272C161.398 104.135 160.889 104.922 160.242 105.589C159.596 106.255 158.824 106.787 157.972 107.156C157.119 107.524 156.202 107.72 155.274 107.734C154.346 107.748 153.423 107.579 152.56 107.237C143.505 103.645 122.328 98.7751 104.126 107.95C92.1233 114.002 83.1977 122.135 78.2938 127.865Z" fill="url(#paint29_radial_701_388)"/>
<path fill-rule="evenodd" clip-rule="evenodd" d="M78.2938 127.865C74.144 125.552 70.148 122.973 66.3308 120.144C72.4735 112.525 83.4523 102.537 97.7626 95.3248C121.276 83.4693 147.204 89.9005 157.775 94.0917C158.639 94.4342 159.426 94.9432 160.092 95.5899C160.759 96.2366 161.291 97.0081 161.659 97.8606C162.027 98.713 162.224 99.6297 162.238 100.558C162.252 101.487 162.083 102.409 161.74 103.272C161.398 104.135 160.889 104.922 160.242 105.589C159.596 106.255 158.824 106.787 157.972 107.156C157.119 107.524 156.202 107.72 155.274 107.734C154.346 107.748 153.423 107.579 152.56 107.237C143.505 103.645 122.328 98.7751 104.126 107.95C92.1233 114.002 83.1977 122.135 78.2938 127.865Z" fill="url(#paint30_radial_701_388)"/>
<path fill-rule="evenodd" clip-rule="evenodd" d="M78.2938 127.865C74.144 125.552 70.148 122.973 66.3308 120.144C72.4735 112.525 83.4523 102.537 97.7626 95.3248C121.276 83.4693 147.204 89.9005 157.775 94.0917C158.639 94.4342 159.426 94.9432 160.092 95.5899C160.759 96.2366 161.291 97.0081 161.659 97.8606C162.027 98.713 162.224 99.6297 162.238 100.558C162.252 101.487 162.083 102.409 161.74 103.272C161.398 104.135 160.889 104.922 160.242 105.589C159.596 106.255 158.824 106.787 157.972 107.156C157.119 107.524 156.202 107.72 155.274 107.734C154.346 107.748 153.423 107.579 152.56 107.237C143.505 103.645 122.328 98.7751 104.126 107.95C92.1233 114.002 83.1977 122.135 78.2938 127.865Z" fill="url(#paint31_radial_701_388)"/>
<g filter="url(#filter4_i_701_388)">
<path fill-rule="evenodd" clip-rule="evenodd" d="M57.6484 37.6311C57.1965 36.8196 56.5891 36.105 55.8609 35.5283C55.1328 34.9515 54.2982 34.5238 53.4048 34.2696C52.5114 34.0154 51.5766 33.9397 50.6539 34.0467C49.7312 34.1537 48.8387 34.4415 48.0272 34.8934C47.2157 35.3454 46.5011 35.9528 45.9244 36.681C45.3476 37.4091 44.9199 38.2437 44.6657 39.1371C44.4115 40.0305 44.3357 40.9653 44.4428 41.888C44.5498 42.8106 44.8375 43.7032 45.2895 44.5147C48.1573 49.6619 51.6868 56.9415 52.1393 66.3082C52.5352 74.4702 50.6121 84.8212 42.8008 97.2423C45.7669 101.126 49.0087 104.791 52.5012 108.21C63.5196 92.1856 66.8512 77.83 66.2629 65.6238C65.6577 53.0104 60.8782 43.44 57.6484 37.6311Z" fill="url(#paint32_radial_701_388)"/>
<path fill-rule="evenodd" clip-rule="evenodd" d="M57.6484 37.6311C57.1965 36.8196 56.5891 36.105 55.8609 35.5283C55.1328 34.9515 54.2982 34.5238 53.4048 34.2696C52.5114 34.0154 51.5766 33.9397 50.6539 34.0467C49.7312 34.1537 48.8387 34.4415 48.0272 34.8934C47.2157 35.3454 46.5011 35.9528 45.9244 36.681C45.3476 37.4091 44.9199 38.2437 44.6657 39.1371C44.4115 40.0305 44.3357 40.9653 44.4428 41.888C44.5498 42.8106 44.8375 43.7032 45.2895 44.5147C48.1573 49.6619 51.6868 56.9415 52.1393 66.3082C52.5352 74.4702 50.6121 84.8212 42.8008 97.2423C45.7669 101.126 49.0087 104.791 52.5012 108.21C63.5196 92.1856 66.8512 77.83 66.2629 65.6238C65.6577 53.0104 60.8782 43.44 57.6484 37.6311Z" fill="url(#paint33_radial_701_388)"/>
</g>
<path d="M72.7112 46.4492C73.0581 45.5894 73.4993 44.7448 74.0347 43.9152C78.5032 37.0315 87.8247 35.1593 94.9063 40.0576C95.7246 40.6232 96.4919 41.2586 97.2084 41.9638C97.4347 41.3793 97.6571 40.7873 97.8758 40.1877L97.9041 40.3008C96.4505 44.8824 93.1868 49.792 91.3711 52.1563C90.5566 50.4595 89.5894 49.4413 88.7976 48.8983C86.5803 47.3655 84.1425 48.0782 83.0452 49.7694L82.9264 49.9674L72.7112 46.4492Z" fill="url(#paint34_radial_701_388)"/>
<path d="M72.7112 46.4492C73.0581 45.5894 73.4993 44.7448 74.0347 43.9152C78.5032 37.0315 87.8247 35.1593 94.9063 40.0576C95.7246 40.6232 96.4919 41.2586 97.2084 41.9638C97.4347 41.3793 97.6571 40.7873 97.8758 40.1877L97.9041 40.3008C96.4505 44.8824 93.1868 49.792 91.3711 52.1563C90.5566 50.4595 89.5894 49.4413 88.7976 48.8983C86.5803 47.3655 84.1425 48.0782 83.0452 49.7694L82.9264 49.9674L72.7112 46.4492Z" fill="url(#paint35_radial_701_388)"/>
<g filter="url(#filter5_i_701_388)">
<path d="M103.181 54.119C104.03 58.6214 104.053 63.9383 103.119 69.9735C102.902 71.3821 102.134 72.6466 100.984 73.4889C99.8338 74.3311 98.3965 74.6821 96.9879 74.4646C95.5792 74.247 94.3147 73.4789 93.4725 72.329C92.6302 71.1791 92.2793 69.7418 92.4968 68.3332C92.7042 66.987 92.855 65.7238 92.9493 64.5435C98.5037 61.0536 102.169 56.4155 103.181 54.119Z" fill="#44B6FF"/>
</g>
<path d="M103.181 54.119C104.03 58.6214 104.053 63.9383 103.119 69.9735C102.902 71.3821 102.134 72.6466 100.984 73.4889C99.8338 74.3311 98.3965 74.6821 96.9879 74.4646C95.5792 74.247 94.3147 73.4789 93.4725 72.329C92.6302 71.1791 92.2793 69.7418 92.4968 68.3332C92.7042 66.987 92.855 65.7238 92.9493 64.5435C98.5037 61.0536 102.169 56.4155 103.181 54.119Z" fill="url(#paint36_radial_701_388)"/>
<g filter="url(#filter6_f_701_388)">
<path d="M93.6109 46.2229C92.1064 44.1867 87.2872 40.5667 81.2351 44.3224C79.2045 45.5838 78.011 50.3294 78.9386 53.5591" stroke="url(#paint37_linear_701_388)" stroke-width="0.13125" stroke-linecap="round"/>
</g>
<g filter="url(#filter7_f_701_388)">
<path d="M110.139 17.0593C109.663 25.6002 105.964 45.7647 94.9346 58.0671" stroke="url(#paint38_linear_701_388)" stroke-width="0.13125" stroke-linecap="round"/>
</g>
<defs>
<filter id="filter0_i_701_388" x="14.5598" y="68.6491" width="97.0703" height="100.812" filterUnits="userSpaceOnUse" color-interpolation-filters="sRGB">
<feFlood flood-opacity="0" result="BackgroundImageFix"/>
<feBlend mode="normal" in="SourceGraphic" in2="BackgroundImageFix" result="shape"/>
<feColorMatrix in="SourceAlpha" type="matrix" values="0 0 0 0 0 0 0 0 0 0 0 0 0 0 0 0 0 0 127 0" result="hardAlpha"/>
<feOffset dy="-0.21875"/>
<feGaussianBlur stdDeviation="0.21875"/>
<feComposite in2="hardAlpha" operator="arithmetic" k2="-1" k3="1"/>
<feColorMatrix type="matrix" values="0 0 0 0 0.92549 0 0 0 0 0.34902 0 0 0 0 0.384314 0 0 0 1 0"/>
<feBlend mode="normal" in2="shape" result="effect1_innerShadow_701_388"/>
</filter>
<filter id="filter1_f_701_388" x="29.1772" y="69.9957" width="80.7668" height="70.6928" filterUnits="userSpaceOnUse" color-interpolation-filters="sRGB">
<feFlood flood-opacity="0" result="BackgroundImageFix"/>
<feBlend mode="normal" in="SourceGraphic" in2="BackgroundImageFix" result="shape"/>
<feGaussianBlur stdDeviation="0.109375" result="effect1_foregroundBlur_701_388"/>
</filter>
<filter id="filter2_f_701_388" x="34.0211" y="70.7556" width="73.9858" height="64.2292" filterUnits="userSpaceOnUse" color-interpolation-filters="sRGB">
<feFlood flood-opacity="0" result="BackgroundImageFix"/>
<feBlend mode="normal" in="SourceGraphic" in2="BackgroundImageFix" result="shape"/>
<feGaussianBlur stdDeviation="0.04375" result="effect1_foregroundBlur_701_388"/>
</filter>
<filter id="filter3_i_701_388" x="111.226" y="61.1865" width="53.6128" height="24.5176" filterUnits="userSpaceOnUse" color-interpolation-filters="sRGB">
<feFlood flood-opacity="0" result="BackgroundImageFix"/>
<feBlend mode="normal" in="SourceGraphic" in2="BackgroundImageFix" result="shape"/>
<feColorMatrix in="SourceAlpha" type="matrix" values="0 0 0 0 0 0 0 0 0 0 0 0 0 0 0 0 0 0 127 0" result="hardAlpha"/>
<feOffset dx="0.109375" dy="-0.109375"/>
<feGaussianBlur stdDeviation="0.109375"/>
<feComposite in2="hardAlpha" operator="arithmetic" k2="-1" k3="1"/>
<feColorMatrix type="matrix" values="0 0 0 0 0.721569 0 0 0 0 0.270588 0 0 0 0 0.470588 0 0 0 1 0"/>
<feBlend mode="normal" in2="shape" result="effect1_innerShadow_701_388"/>
</filter>
<filter id="filter4_i_701_388" x="42.8008" y="33.9996" width="23.5925" height="74.3196" filterUnits="userSpaceOnUse" color-interpolation-filters="sRGB">
<feFlood flood-opacity="0" result="BackgroundImageFix"/>
<feBlend mode="normal" in="SourceGraphic" in2="BackgroundImageFix" result="shape"/>
<feColorMatrix in="SourceAlpha" type="matrix" values="0 0 0 0 0 0 0 0 0 0 0 0 0 0 0 0 0 0 127 0" result="hardAlpha"/>
<feOffset dx="0.065625" dy="0.109375"/>
<feGaussianBlur stdDeviation="0.21875"/>
<feComposite in2="hardAlpha" operator="arithmetic" k2="-1" k3="1"/>
<feColorMatrix type="matrix" values="0 0 0 0 0.721569 0 0 0 0 0.184314 0 0 0 0 0.447059 0 0 0 1 0"/>
<feBlend mode="normal" in2="shape" result="effect1_innerShadow_701_388"/>
</filter>
<filter id="filter5_i_701_388" x="92.4338" y="54.0096" width="11.6035" height="20.5179" filterUnits="userSpaceOnUse" color-interpolation-filters="sRGB">
<feFlood flood-opacity="0" result="BackgroundImageFix"/>
<feBlend mode="normal" in="SourceGraphic" in2="BackgroundImageFix" result="shape"/>
<feColorMatrix in="SourceAlpha" type="matrix" values="0 0 0 0 0 0 0 0 0 0 0 0 0 0 0 0 0 0 127 0" result="hardAlpha"/>
<feOffset dx="0.21875" dy="-0.109375"/>
<feGaussianBlur stdDeviation="0.142187"/>
<feComposite in2="hardAlpha" operator="arithmetic" k2="-1" k3="1"/>
<feColorMatrix type="matrix" values="0 0 0 0 0.239216 0 0 0 0 0.439216 0 0 0 0 0.768627 0 0 0 1 0"/>
<feBlend mode="normal" in2="shape" result="effect1_innerShadow_701_388"/>
</filter>
<filter id="filter6_f_701_388" x="78.4225" y="42.4919" width="15.3853" height="11.264" filterUnits="userSpaceOnUse" color-interpolation-filters="sRGB">
<feFlood flood-opacity="0" result="BackgroundImageFix"/>
<feBlend mode="normal" in="SourceGraphic" in2="BackgroundImageFix" result="shape"/>
<feGaussianBlur stdDeviation="0.065625" result="effect1_foregroundBlur_701_388"/>
</filter>
<filter id="filter7_f_701_388" x="94.672" y="16.7968" width="15.729" height="41.5328" filterUnits="userSpaceOnUse" color-interpolation-filters="sRGB">
<feFlood flood-opacity="0" result="BackgroundImageFix"/>
<feBlend mode="normal" in="SourceGraphic" in2="BackgroundImageFix" result="shape"/>
<feGaussianBlur stdDeviation="0.0984375" result="effect1_foregroundBlur_701_388"/>
</filter>
<linearGradient id="paint0_linear_701_388" x1="23.8807" y1="113.035" x2="69.4814" y2="152.628" gradientUnits="userSpaceOnUse">
<stop stop-color="#B3843C"/>
<stop offset="1" stop-color="#F17A61"/>
</linearGradient>
<linearGradient id="paint1_linear_701_388" x1="18.841" y1="119.166" x2="32.1841" y2="121.875" gradientUnits="userSpaceOnUse">
<stop stop-color="#B1853B"/>
<stop offset="1" stop-color="#B1853B" stop-opacity="0"/>
</linearGradient>
<linearGradient id="paint2_linear_701_388" x1="111.632" y1="134.777" x2="89.103" y2="138.488" gradientUnits="userSpaceOnUse">
<stop stop-color="#F9C26C"/>
<stop offset="1" stop-color="#F9C26C" stop-opacity="0"/>
</linearGradient>
<linearGradient id="paint3_linear_701_388" x1="63.0955" y1="70.0866" x2="48.6268" y2="94.6517" gradientUnits="userSpaceOnUse">
<stop stop-color="#E6BF69"/>
<stop offset="1" stop-color="#E6BF69" stop-opacity="0"/>
</linearGradient>
<linearGradient id="paint4_linear_701_388" x1="58.1688" y1="119.262" x2="87.5292" y2="93.0582" gradientUnits="userSpaceOnUse">
<stop stop-color="#FCCB57"/>
<stop offset="1" stop-color="#F5BD55"/>
</linearGradient>
<linearGradient id="paint5_linear_701_388" x1="39.9611" y1="74.6786" x2="108.722" y2="137.78" gradientUnits="userSpaceOnUse">
<stop stop-color="#F3AB2C"/>
<stop offset="1" stop-color="#B57F1E"/>
</linearGradient>
<radialGradient id="paint6_radial_701_388" cx="0" cy="0" r="1" gradientUnits="userSpaceOnUse" gradientTransform="translate(44.7413 98.1898) rotate(-69.379) scale(36.6384 10.262)">
<stop offset="0.423" stop-color="#CA851E"/>
<stop offset="1" stop-color="#CA851E" stop-opacity="0"/>
</radialGradient>
<radialGradient id="paint7_radial_701_388" cx="0" cy="0" r="1" gradientUnits="userSpaceOnUse" gradientTransform="translate(73.9037 123.112) rotate(-33.3512) scale(36.8196 21.5619)">
<stop stop-color="#BC7F28"/>
<stop offset="1" stop-color="#BC7F28" stop-opacity="0"/>
</radialGradient>
<radialGradient id="paint8_radial_701_388" cx="0" cy="0" r="1" gradientUnits="userSpaceOnUse" gradientTransform="translate(87.6009 88.6464) rotate(138.668) scale(9.76897)">
<stop stop-color="#5AC0FF"/>
<stop offset="1" stop-color="#3279B6"/>
</radialGradient>
<radialGradient id="paint9_radial_701_388" cx="0" cy="0" r="1" gradientUnits="userSpaceOnUse" gradientTransform="translate(85.9355 89.5611) rotate(160.051) scale(9.81015 10.7532)">
<stop offset="0.535" stop-color="#3A619E" stop-opacity="0"/>
<stop offset="1" stop-color="#3A619E"/>
</radialGradient>
<radialGradient id="paint10_radial_701_388" cx="0" cy="0" r="1" gradientUnits="userSpaceOnUse" gradientTransform="translate(144.393 126.684) rotate(134.569) scale(11.1854)">
<stop stop-color="#FDD46C"/>
<stop offset="1" stop-color="#F09C53"/>
</radialGradient>
<radialGradient id="paint11_radial_701_388" cx="0" cy="0" r="1" gradientUnits="userSpaceOnUse" gradientTransform="translate(141.712 126.098) rotate(100.827) scale(11.0796)">
<stop offset="0.792" stop-color="#E76260" stop-opacity="0"/>
<stop offset="0.964" stop-color="#E76260"/>
</radialGradient>
<radialGradient id="paint12_radial_701_388" cx="0" cy="0" r="1" gradientUnits="userSpaceOnUse" gradientTransform="translate(143.697 130.688) rotate(-147.558) scale(11.2203 13.2135)">
<stop offset="0.482" stop-color="#AA885A" stop-opacity="0"/>
<stop offset="0.907" stop-color="#AA885A"/>
</radialGradient>
<radialGradient id="paint13_radial_701_388" cx="0" cy="0" r="1" gradientUnits="userSpaceOnUse" gradientTransform="translate(139.622 37.0339) rotate(132.387) scale(11.6525)">
<stop stop-color="#FF46AA"/>
<stop offset="1" stop-color="#E3189D"/>
</radialGradient>
<radialGradient id="paint14_radial_701_388" cx="0" cy="0" r="1" gradientUnits="userSpaceOnUse" gradientTransform="translate(137.622 40.9174) rotate(-173.29) scale(10.5896 14.1723)">
<stop offset="0.522" stop-color="#B63173" stop-opacity="0"/>
<stop offset="1" stop-color="#B63173"/>
</radialGradient>
<radialGradient id="paint15_radial_701_388" cx="0" cy="0" r="1" gradientUnits="userSpaceOnUse" gradientTransform="translate(60.9656 16.3214) rotate(139.574) scale(10.4142)">
<stop stop-color="#FFF46F"/>
<stop offset="1" stop-color="#EFB93C"/>
</radialGradient>
<radialGradient id="paint16_radial_701_388" cx="0" cy="0" r="1" gradientUnits="userSpaceOnUse" gradientTransform="translate(59.4756 17.9411) rotate(-178.519) scale(10.8297 10.3112)">
<stop offset="0.559" stop-color="#AA904B" stop-opacity="0"/>
<stop offset="0.944" stop-color="#AA904B"/>
</radialGradient>
<radialGradient id="paint17_radial_701_388" cx="0" cy="0" r="1" gradientUnits="userSpaceOnUse" gradientTransform="translate(58.2595 15.204) rotate(102.339) scale(11.58)">
<stop offset="0.772" stop-color="#C47072" stop-opacity="0"/>
<stop offset="1" stop-color="#C47072"/>
</radialGradient>
<radialGradient id="paint18_radial_701_388" cx="0" cy="0" r="1" gradientUnits="userSpaceOnUse" gradientTransform="translate(32.7561 43.2195) rotate(132.387) scale(11.6526)">
<stop stop-color="#FF46AA"/>
<stop offset="1" stop-color="#E3189D"/>
</radialGradient>
<radialGradient id="paint19_radial_701_388" cx="0" cy="0" r="1" gradientUnits="userSpaceOnUse" gradientTransform="translate(30.7474 47.1053) rotate(-173.29) scale(10.5897 14.1723)">
<stop offset="0.522" stop-color="#B63173" stop-opacity="0"/>
<stop offset="1" stop-color="#B63173"/>
</radialGradient>
<radialGradient id="paint20_radial_701_388" cx="0" cy="0" r="1" gradientUnits="userSpaceOnUse" gradientTransform="translate(63.4744 141.847) rotate(133.21) scale(24.0091 52.5664)">
<stop stop-color="#3365FF"/>
<stop offset="1" stop-color="#356DB9"/>
</radialGradient>
<radialGradient id="paint21_radial_701_388" cx="0" cy="0" r="1" gradientUnits="userSpaceOnUse" gradientTransform="translate(41.9097 158.465) rotate(131.598) scale(14.8203 37.4892)">
<stop stop-color="#3365FF"/>
<stop offset="1" stop-color="#356DB9"/>
</radialGradient>
<radialGradient id="paint22_radial_701_388" cx="0" cy="0" r="1" gradientUnits="userSpaceOnUse" gradientTransform="translate(155.74 67.2573) rotate(168.283) scale(24.3702 9.09197)">
<stop stop-color="#FF3BA9"/>
<stop offset="1" stop-color="#F422A7"/>
</radialGradient>
<radialGradient id="paint23_radial_701_388" cx="0" cy="0" r="1" gradientUnits="userSpaceOnUse" gradientTransform="translate(138.109 86.6969) rotate(-127.355) scale(25.1274 44.7821)">
<stop offset="0.752" stop-color="#B8306F" stop-opacity="0"/>
<stop offset="1" stop-color="#B8306F"/>
</radialGradient>
<linearGradient id="paint24_linear_701_388" x1="107.82" y1="11.7707" x2="82.4683" y2="72.5301" gradientUnits="userSpaceOnUse">
<stop stop-color="#20B2EE"/>
<stop offset="1" stop-color="#2689DA"/>
</linearGradient>
<radialGradient id="paint25_radial_701_388" cx="0" cy="0" r="1" gradientUnits="userSpaceOnUse" gradientTransform="translate(102.255 31.5112) rotate(128.217) scale(43.8961 26.8502)">
<stop offset="0.802" stop-color="#4274D2" stop-opacity="0"/>
<stop offset="0.951" stop-color="#4274D2"/>
</radialGradient>
<radialGradient id="paint26_radial_701_388" cx="0" cy="0" r="1" gradientUnits="userSpaceOnUse" gradientTransform="translate(100.059 26.426) rotate(12.095) scale(6.32697 21.2401)">
<stop stop-color="#4D8EC0"/>
<stop offset="1" stop-color="#4D8EC0" stop-opacity="0"/>
</radialGradient>
<radialGradient id="paint27_radial_701_388" cx="0" cy="0" r="1" gradientUnits="userSpaceOnUse" gradientTransform="translate(112.614 12.7235) rotate(141.953) scale(7.74363 6.96205)">
<stop stop-color="#5ADEFF"/>
<stop offset="1" stop-color="#5ADEFF" stop-opacity="0"/>
</radialGradient>
<linearGradient id="paint28_linear_701_388" x1="81.7328" y1="122.712" x2="157.583" y2="102.836" gradientUnits="userSpaceOnUse">
<stop stop-color="#3797E2"/>
<stop offset="1" stop-color="#37AEFF"/>
</linearGradient>
<radialGradient id="paint29_radial_701_388" cx="0" cy="0" r="1" gradientUnits="userSpaceOnUse" gradientTransform="translate(109.79 135.109) rotate(-129.838) scale(45.137 113.145)">
<stop offset="0.623" stop-color="#526579" stop-opacity="0"/>
<stop offset="0.962" stop-color="#526579"/>
</radialGradient>
<radialGradient id="paint30_radial_701_388" cx="0" cy="0" r="1" gradientUnits="userSpaceOnUse" gradientTransform="translate(135.139 110.749) rotate(94.399) scale(15.4936 31.1501)">
<stop offset="0.396" stop-color="#6972FF"/>
<stop offset="1" stop-color="#6972FF" stop-opacity="0"/>
</radialGradient>
<radialGradient id="paint31_radial_701_388" cx="0" cy="0" r="1" gradientUnits="userSpaceOnUse" gradientTransform="translate(158.115 97.7344) rotate(-68.8191) scale(4.24805 3.35004)">
<stop stop-color="#55BFFF"/>
<stop offset="1" stop-color="#55BFFF" stop-opacity="0"/>
</radialGradient>
<radialGradient id="paint32_radial_701_388" cx="0" cy="0" r="1" gradientUnits="userSpaceOnUse" gradientTransform="translate(61.3363 36.4037) rotate(99.4229) scale(41.3576 15.4942)">
<stop stop-color="#FF3AAA"/>
<stop offset="1" stop-color="#FD2F89"/>
</radialGradient>
<radialGradient id="paint33_radial_701_388" cx="0" cy="0" r="1" gradientUnits="userSpaceOnUse" gradientTransform="translate(39.7393 79.0531) rotate(31.176) scale(27.1978 85.3545)">
<stop offset="0.804" stop-color="#DB2C6E" stop-opacity="0"/>
<stop offset="1" stop-color="#DB2C6E"/>
</radialGradient>
<radialGradient id="paint34_radial_701_388" cx="0" cy="0" r="1" gradientUnits="userSpaceOnUse" gradientTransform="translate(92.8678 53.8417) rotate(-119.23) scale(15.4887 11.5779)">
<stop stop-color="#336BAF"/>
<stop offset="1" stop-color="#336BAF" stop-opacity="0"/>
</radialGradient>
<radialGradient id="paint35_radial_701_388" cx="0" cy="0" r="1" gradientUnits="userSpaceOnUse" gradientTransform="translate(97.9098 42.1561) rotate(-127.657) scale(10.493 4.25125)">
<stop stop-color="#49A4D4"/>
<stop offset="1" stop-color="#49A4D4" stop-opacity="0"/>
</radialGradient>
<radialGradient id="paint36_radial_701_388" cx="0" cy="0" r="1" gradientUnits="userSpaceOnUse" gradientTransform="translate(102.627 53.6496) rotate(94.8501) scale(14.635 8.14498)">
<stop stop-color="#4AB5F8"/>
<stop offset="1" stop-color="#4AB5F8" stop-opacity="0"/>
</radialGradient>
<linearGradient id="paint37_linear_701_388" x1="76.908" y1="46.3191" x2="92.638" y2="42.4672" gradientUnits="userSpaceOnUse">
<stop stop-color="#4EAFF2"/>
<stop offset="1" stop-color="#4EAFF2" stop-opacity="0"/>
</linearGradient>
<linearGradient id="paint38_linear_701_388" x1="108.9" y1="11.0467" x2="86.8065" y2="61.9529" gradientUnits="userSpaceOnUse">
<stop stop-color="#5BDDFF"/>
<stop offset="1" stop-color="#5BDDFF" stop-opacity="0"/>
</linearGradient>
</defs>
</svg>
