<svg width="24" height="24" viewBox="0 0 24 24" fill="none" xmlns="http://www.w3.org/2000/svg">
<path fill-rule="evenodd" clip-rule="evenodd" d="M11.4631 2.89101C11.5067 3.08314 11.5121 3.28198 11.4788 3.47617C11.4456 3.67036 11.3745 3.85611 11.2694 4.0228C11.1644 4.18948 11.0276 4.33385 10.8667 4.44764C10.7059 4.56144 10.5242 4.64244 10.3321 4.68601C10.1474 4.72801 9.96544 4.77668 9.7861 4.83201C9.59785 4.89019 9.39999 4.91072 9.20381 4.89243C9.00762 4.87413 8.81696 4.81738 8.64271 4.7254C8.46846 4.63342 8.31404 4.50803 8.18825 4.35637C8.06246 4.20471 7.96778 4.02976 7.9096 3.84151C7.85143 3.65326 7.8309 3.4554 7.84919 3.25922C7.86749 3.06303 7.92424 2.87237 8.01622 2.69813C8.10819 2.52388 8.23359 2.36945 8.38525 2.24366C8.53691 2.11787 8.71185 2.02319 8.9001 1.96501C9.1521 1.88701 9.40777 1.81868 9.6671 1.76001C9.85923 1.71639 10.0581 1.71104 10.2523 1.74427C10.4465 1.7775 10.6322 1.84866 10.7989 1.95369C10.9656 2.05872 11.1099 2.19555 11.2237 2.35638C11.3375 2.51721 11.4185 2.69888 11.4621 2.89101M12.5361 2.89101C12.6243 2.50316 12.863 2.16623 13.1996 1.95432C13.5362 1.74241 13.9432 1.67288 14.3311 1.76101C19.0081 2.82001 22.5001 7.00002 22.5001 12C22.5001 17.799 17.7991 22.5 12.0001 22.5C7.0011 22.5 2.8211 19.008 1.7601 14.332C1.67205 13.944 1.74174 13.5369 1.95385 13.2003C2.16595 12.8636 2.50309 12.6251 2.8911 12.537C3.27912 12.449 3.68621 12.5187 4.02284 12.7308C4.35947 12.9429 4.59805 13.28 4.6861 13.668C4.98458 14.9745 5.6277 16.1772 6.54855 17.1509C7.4694 18.1247 8.63434 18.8338 9.92218 19.2047C11.21 19.5756 12.5737 19.5946 13.8714 19.2598C15.1691 18.925 16.3534 18.2486 17.301 17.3009C18.2487 16.3533 18.9251 15.169 19.2599 13.8713C19.5947 12.5736 19.5757 11.2099 19.2048 9.9221C18.8339 8.63425 18.1247 7.46931 17.151 6.54846C16.1773 5.62761 14.9746 4.9845 13.6681 4.68601C13.2802 4.59779 12.9433 4.35912 12.7314 4.02251C12.5195 3.68589 12.45 3.27889 12.5381 2.89101M6.9801 4.38101C7.25035 4.67269 7.39373 5.05973 7.37873 5.45707C7.36372 5.85442 7.19157 6.22955 6.9001 6.50001C6.7621 6.62859 6.62868 6.76201 6.5001 6.90001C6.36616 7.04447 6.20507 7.16113 6.02603 7.24332C5.847 7.32552 5.65353 7.37165 5.45667 7.37908C5.25981 7.38651 5.06342 7.35509 4.8787 7.28662C4.69398 7.21815 4.52456 7.11396 4.3801 6.98001C4.23565 6.84607 4.11899 6.68498 4.03679 6.50595C3.9546 6.32691 3.90847 6.13344 3.90104 5.93658C3.89361 5.73972 3.92503 5.54333 3.9935 5.35861C4.06197 5.17389 4.16616 5.00447 4.3001 4.86001C4.4801 4.66668 4.66677 4.48001 4.8601 4.30001C5.00455 4.16605 5.17397 4.06185 5.35869 3.99337C5.54341 3.92489 5.73981 3.89346 5.93667 3.90089C6.13354 3.90832 6.32701 3.95446 6.50605 4.03667C6.68508 4.11887 6.84616 4.23655 6.9801 4.38101ZM12.0001 5.50001C12.3979 5.50001 12.7795 5.65805 13.0608 5.93935C13.3421 6.22066 13.5001 6.60219 13.5001 7.00001V11.379L16.0601 13.939C16.2034 14.0773 16.3178 14.2428 16.3965 14.4257C16.4752 14.6087 16.5167 14.8055 16.5185 15.0047C16.5203 15.2039 16.4824 15.4014 16.4071 15.5858C16.3318 15.7702 16.2205 15.9377 16.0797 16.0786C15.9389 16.2195 15.7715 16.331 15.5872 16.4065C15.4029 16.482 15.2054 16.52 15.0062 16.5184C14.807 16.5167 14.6102 16.4755 14.4272 16.3969C14.2441 16.3184 14.0785 16.2042 13.9401 16.061L10.9401 13.061C10.8007 12.9217 10.69 12.7564 10.6145 12.5743C10.539 12.3922 10.5001 12.1971 10.5001 12V7.00001C10.5001 6.60219 10.6581 6.22066 10.9394 5.93935C11.2207 5.65805 11.6023 5.50001 12.0001 5.50001ZM3.8401 7.91001C4.02846 7.96799 4.20355 8.06252 4.35536 8.1882C4.50717 8.31387 4.63272 8.46823 4.72485 8.64245C4.81697 8.81668 4.87386 9.00734 4.89227 9.20356C4.91067 9.39978 4.89023 9.5977 4.8321 9.78602C4.77702 9.96624 4.72832 10.1484 4.6861 10.332C4.59805 10.72 4.35947 11.0572 4.02284 11.2693C3.68621 11.4814 3.27912 11.5511 2.8911 11.463C2.50309 11.375 2.16595 11.1364 1.95385 10.7998C1.74174 10.4631 1.67205 10.056 1.7601 9.66802C1.81877 9.40802 1.8871 9.15235 1.9651 8.90101C2.02319 8.71275 2.11779 8.53777 2.24351 8.38607C2.36923 8.23437 2.5236 8.10892 2.69781 8.01689C2.87202 7.92487 3.06266 7.86806 3.25883 7.84972C3.45499 7.83138 3.65285 7.85187 3.8411 7.91001" fill="black"/>
</svg>
