<svg width="14" height="14" viewBox="0 0 14 14" fill="none" xmlns="http://www.w3.org/2000/svg">
<path d="M11.0395 1.8299C10.8755 1.66578 10.6807 1.5356 10.4663 1.4468C10.252 1.358 10.0222 1.31232 9.79017 1.31238C9.55814 1.31243 9.32839 1.35822 9.11407 1.44712C8.89974 1.53602 8.70504 1.66629 8.54109 1.83048L2.99534 7.38381C2.6649 7.71501 2.47925 8.16371 2.47909 8.63156V10.5C2.47909 10.7415 2.67509 10.9375 2.91659 10.9375H4.79667C5.26508 10.9375 5.71425 10.7508 6.045 10.4201L11.5867 4.8749C11.9172 4.54355 12.1029 4.09461 12.1029 3.62656C12.1029 3.15852 11.9172 2.70958 11.5867 2.37823L11.0395 1.8299ZM2.33325 11.8125C2.21722 11.8125 2.10594 11.8586 2.02389 11.9406C1.94185 12.0227 1.89575 12.1339 1.89575 12.25C1.89575 12.366 1.94185 12.4773 2.02389 12.5593C2.10594 12.6414 2.21722 12.6875 2.33325 12.6875H11.6666C11.7826 12.6875 11.8939 12.6414 11.9759 12.5593C12.058 12.4773 12.1041 12.366 12.1041 12.25C12.1041 12.1339 12.058 12.0227 11.9759 11.9406C11.8939 11.8586 11.7826 11.8125 11.6666 11.8125H2.33325Z" fill="#0D7CF2"/>
</svg>
