<svg width="24" height="24" viewBox="0 0 24 24" fill="none" xmlns="http://www.w3.org/2000/svg">
<path d="M2.90591 17.505L5.33691 3.71802C5.38243 3.45929 5.47849 3.21207 5.61958 2.99048C5.76067 2.76888 5.94403 2.57725 6.15919 2.42654C6.37436 2.27582 6.6171 2.16897 6.87357 2.11209C7.13004 2.0552 7.3952 2.0494 7.65391 2.09502L19.4719 4.18002C19.9942 4.2722 20.4586 4.56809 20.7627 5.00261C21.0669 5.43712 21.186 5.97467 21.0939 6.49702L18.6629 20.284C18.6174 20.5427 18.5213 20.79 18.3802 21.0116C18.2391 21.2331 18.0558 21.4248 17.8406 21.5755C17.6255 21.7262 17.3827 21.8331 17.1262 21.8899C16.8698 21.9468 16.6046 21.9526 16.3459 21.907L4.52791 19.822C4.00557 19.7298 3.54125 19.4339 3.23707 18.9994C2.93289 18.5649 2.81376 18.0274 2.90591 17.505Z" stroke="#A0A0A0" stroke-width="1.5"/>
<path d="M8.92879 6.38202L16.8078 7.77102M8.2338 10.321L16.1128 11.711M7.53979 14.26L12.4638 15.129" stroke="#A0A0A0" stroke-width="1.5" stroke-linecap="round"/>
</svg>
