<svg width="14" height="14" viewBox="0 0 14 14" fill="none" xmlns="http://www.w3.org/2000/svg">
<path d="M2.33325 2.91669C2.33326 2.83912 2.34875 2.76233 2.37879 2.69081C2.40884 2.61929 2.45285 2.55449 2.50825 2.50019C3.14399 1.87698 3.99333 1.51945 4.88338 1.50038C5.77344 1.4813 6.63731 1.80212 7.29917 2.39752L7.50392 2.58886C7.92942 2.96166 8.47587 3.16719 9.04159 3.16719C9.6073 3.16719 10.1538 2.96166 10.5793 2.58886L10.7245 2.45644C11.0803 2.17469 11.6153 2.39986 11.6637 2.85077L11.6666 2.91669V8.16669C11.6666 8.24426 11.6511 8.32105 11.621 8.39257C11.591 8.46408 11.547 8.52889 11.4916 8.58319C10.8558 9.2064 10.0065 9.56393 9.11645 9.583C8.2264 9.60208 7.36253 9.28126 6.70067 8.68586L6.49592 8.49452C6.08381 8.13344 5.55778 7.9289 5.01 7.91674C4.46223 7.90458 3.92764 8.08558 3.49992 8.42802V12.25C3.49975 12.3987 3.44282 12.5417 3.34076 12.6498C3.23869 12.7579 3.0992 12.823 2.95077 12.8317C2.80235 12.8404 2.6562 12.7921 2.54218 12.6967C2.42817 12.6013 2.3549 12.4659 2.33734 12.3183L2.33325 12.25V2.91669Z" fill="#F97316"/>
</svg>
