<svg width="45" height="43" viewBox="0 0 45 43" fill="none" xmlns="http://www.w3.org/2000/svg">
<path d="M18.5 8.3125C16.3534 8.3125 14.2947 9.16523 12.7769 10.6831C11.259 12.201 10.4063 14.2597 10.4062 16.4062C10.4063 18.5528 11.259 20.6115 12.7769 22.1294C14.2947 23.6473 16.3534 24.5 18.5 24.5C20.6466 24.5 22.7053 23.6473 24.2231 22.1294C25.741 20.6115 26.5938 18.5528 26.5938 16.4062C26.5938 14.2597 25.741 12.201 24.2231 10.6831C22.7053 9.16523 20.6466 8.3125 18.5 8.3125ZM11.5625 16.4062C11.5625 14.5663 12.2934 12.8017 13.5944 11.5007C14.8955 10.1997 16.6601 9.46875 18.5 9.46875C20.3399 9.46875 22.1045 10.1997 23.4056 11.5007C24.7066 12.8017 25.4375 14.5663 25.4375 16.4062C25.4375 18.2462 24.7066 20.0108 23.4056 21.3118C22.1045 22.6128 20.3399 23.3438 18.5 23.3438C16.6601 23.3438 14.8955 22.6128 13.5944 21.3118C12.2934 20.0108 11.5625 18.2462 11.5625 16.4062ZM8.67188 26.8125C7.59858 26.8125 6.56924 27.2389 5.8103 27.9978C5.05137 28.7567 4.625 29.7861 4.625 30.8594V31.6306C4.625 34.1165 7.82319 40.6875 18.5 40.6875C29.1768 40.6875 32.375 34.1154 32.375 31.6306V30.8594C32.375 29.7861 31.9486 28.7567 31.1897 27.9978C30.4308 27.2389 29.4014 26.8125 28.3281 26.8125H8.67188ZM5.78125 30.8594C5.78125 30.0927 6.0858 29.3575 6.62789 28.8154C7.16999 28.2733 7.90523 27.9688 8.67188 27.9688H28.3281C29.0948 27.9688 29.83 28.2733 30.3721 28.8154C30.9142 29.3575 31.2188 30.0927 31.2188 30.8594V31.6306C31.2188 33.3846 28.6345 39.5312 18.5 39.5312C8.36547 39.5312 5.78125 33.3846 5.78125 31.6306V30.8594Z" fill="#575757"/>
<path d="M34 13.7109L29.1484 8.85156L29.8516 8.14844L34 12.2891L44.1484 2.14844L44.8516 2.85156L34 13.7109Z" fill="#757575"/>
</svg>
