<svg width="49" height="49" viewBox="0 0 49 49" fill="none" xmlns="http://www.w3.org/2000/svg">
<path d="M18.5 14.3125C16.3534 14.3125 14.2947 15.1652 12.7769 16.6831C11.259 18.201 10.4063 20.2597 10.4062 22.4062C10.4063 24.5528 11.259 26.6115 12.7769 28.1294C14.2947 29.6473 16.3534 30.5 18.5 30.5C20.6466 30.5 22.7053 29.6473 24.2231 28.1294C25.741 26.6115 26.5938 24.5528 26.5938 22.4062C26.5938 20.2597 25.741 18.201 24.2231 16.6831C22.7053 15.1652 20.6466 14.3125 18.5 14.3125ZM11.5625 22.4062C11.5625 20.5663 12.2934 18.8017 13.5944 17.5007C14.8955 16.1997 16.6601 15.4688 18.5 15.4688C20.3399 15.4688 22.1045 16.1997 23.4056 17.5007C24.7066 18.8017 25.4375 20.5663 25.4375 22.4062C25.4375 24.2462 24.7066 26.0108 23.4056 27.3118C22.1045 28.6128 20.3399 29.3438 18.5 29.3438C16.6601 29.3438 14.8955 28.6128 13.5944 27.3118C12.2934 26.0108 11.5625 24.2462 11.5625 22.4062ZM8.67188 32.8125C7.59858 32.8125 6.56924 33.2389 5.8103 33.9978C5.05137 34.7567 4.625 35.7861 4.625 36.8594V37.6306C4.625 40.1165 7.82319 46.6875 18.5 46.6875C29.1768 46.6875 32.375 40.1154 32.375 37.6306V36.8594C32.375 35.7861 31.9486 34.7567 31.1897 33.9978C30.4308 33.2389 29.4014 32.8125 28.3281 32.8125H8.67188ZM5.78125 36.8594C5.78125 36.0927 6.0858 35.3575 6.62789 34.8154C7.16999 34.2733 7.90523 33.9688 8.67188 33.9688H28.3281C29.0948 33.9688 29.83 34.2733 30.3721 34.8154C30.9142 35.3575 31.2188 36.0927 31.2188 36.8594V37.6306C31.2188 39.3846 28.6345 45.5312 18.5 45.5312C8.36547 45.5312 5.78125 39.3846 5.78125 37.6306V36.8594Z" fill="#575757"/>
<path d="M44 6.41L42.59 5L37 10.59L31.41 5L30 6.41L35.59 12L30 17.59L31.41 19L37 13.41L42.59 19L44 17.59L38.41 12L44 6.41Z" fill="#757575"/>
</svg>
