<svg width="30" height="30" viewBox="0 0 30 30" fill="none" xmlns="http://www.w3.org/2000/svg">
<path d="M21 6H27M24 9V3" stroke="#757575" stroke-width="1.5" stroke-miterlimit="10" stroke-linecap="round" stroke-linejoin="round"/>
<path d="M2.90591 23.505L5.33691 9.71802C5.38243 9.45929 5.47849 9.21207 5.61958 8.99048C5.76067 8.76888 5.94403 8.57725 6.15919 8.42654C6.37436 8.27582 6.6171 8.16897 6.87357 8.11209C7.13004 8.0552 7.3952 8.0494 7.65391 8.09502L19.4719 10.18C19.9942 10.2722 20.4586 10.5681 20.7627 11.0026C21.0669 11.4371 21.186 11.9747 21.0939 12.497L18.6629 26.284C18.6174 26.5427 18.5213 26.79 18.3802 27.0116C18.2391 27.2331 18.0558 27.4248 17.8406 27.5755C17.6255 27.7262 17.3827 27.8331 17.1262 27.8899C16.8698 27.9468 16.6046 27.9526 16.3459 27.907L4.52791 25.822C4.00557 25.7298 3.54125 25.4339 3.23707 24.9994C2.93289 24.5649 2.81376 24.0274 2.90591 23.505Z" stroke="#757575" stroke-width="1.5"/>
<path d="M8.92879 12.382L16.8078 13.771M8.2338 16.321L16.1128 17.711M7.53979 20.26L12.4638 21.129" stroke="#757575" stroke-width="1.5" stroke-linecap="round"/>
</svg>
