<svg width="30" height="30" viewBox="0 0 30 30" fill="none" xmlns="http://www.w3.org/2000/svg">
<path d="M15.4286 6.85712V17.1428L21.5829 24.9771C21.8827 25.3565 22.0694 25.8127 22.1217 26.2934C22.174 26.774 22.0897 27.2597 21.8785 27.6947C21.6673 28.1296 21.3377 28.4962 20.9276 28.7523C20.5175 29.0085 20.0435 29.1438 19.56 29.1428H4.44003C3.95651 29.1438 3.48252 29.0085 3.07243 28.7523C2.66235 28.4962 2.33279 28.1296 2.12158 27.6947C1.91038 27.2597 1.82608 26.774 1.87836 26.2934C1.93064 25.8127 2.11739 25.3565 2.41717 24.9771L8.57145 17.1428V6.85712M6.00003 6.85712H18" stroke="#757575" stroke-linecap="round" stroke-linejoin="round"/>
<path d="M21 6H27M24 9V3" stroke="#757575" stroke-width="1.5" stroke-miterlimit="10" stroke-linecap="round" stroke-linejoin="round"/>
</svg>
