<svg width="36" height="36" viewBox="0 0 36 36" fill="none" xmlns="http://www.w3.org/2000/svg">
<path d="M12.5 26.9995C16.495 26.991 19.186 26.883 20.756 26.7925C21.794 26.7325 22.632 25.997 22.752 24.9645C22.8785 23.88 23 22.25 23 20C23 17.75 22.8785 16.12 22.752 15.035C22.632 14.003 21.794 13.2675 20.7565 13.2075C19.1215 13.113 16.2715 13 12 13C11.6573 13 11.324 13.0007 11 13.002M6.25 29V34.5M3 16.75C3 17.612 3.34241 18.4386 3.9519 19.0481C4.5614 19.6576 5.38805 20 6.25 20C7.11195 20 7.9386 19.6576 8.5481 19.0481C9.15759 18.4386 9.5 17.612 9.5 16.75C9.5 15.888 9.15759 15.0614 8.5481 14.4519C7.9386 13.8424 7.11195 13.5 6.25 13.5C5.38805 13.5 4.5614 13.8424 3.9519 14.4519C3.34241 15.0614 3 15.888 3 16.75Z" stroke="#757575" stroke-width="1.5" stroke-linecap="round" stroke-linejoin="round"/>
<path d="M14.2695 20.169C14.582 20.187 14.8655 20.3585 14.9325 20.664C15.0045 20.992 15.0455 21.5015 14.915 22.2155C14.8435 22.606 14.5105 22.8865 14.117 22.9405L10 23.5L9.10001 33.16C9.04001 33.802 8.57501 34.3315 7.93501 34.405C7.38677 34.4681 6.83537 34.4998 6.28351 34.5C5.65201 34.5 5.08201 34.458 4.62451 34.4075C3.95551 34.333 3.47451 33.77 3.43801 33.0975L3.12901 27.439C2.6988 27.4168 2.26905 27.3863 1.84001 27.3475C1.60725 27.3264 1.39153 27.2165 1.23757 27.0407C1.0836 26.8649 1.00319 26.6365 1.01301 26.403C1.07151 24.518 1.30951 22.795 1.50751 21.6455C1.65651 20.7815 2.38851 20.157 3.26451 20.1145C6.74351 19.9455 10.6845 19.9635 14.2695 20.1695V20.169Z" stroke="#757575" stroke-width="1.5" stroke-linecap="round" stroke-linejoin="round"/>
<path d="M24 8H32M28 12V4" stroke="#757575" stroke-width="1.5" stroke-miterlimit="10" stroke-linecap="round" stroke-linejoin="round"/>
</svg>
