<svg width="32" height="32" viewBox="0 0 32 32" fill="none" xmlns="http://www.w3.org/2000/svg">
<path d="M20 8H28M24 12V4" stroke="#757575" stroke-width="1.5" stroke-miterlimit="10" stroke-linecap="round" stroke-linejoin="round"/>
<path d="M10 15.5C10 15.3674 10.0527 15.2402 10.1464 15.1464C10.2402 15.0527 10.3674 15 10.5 15H14.5C14.6326 15 14.7598 15.0527 14.8536 15.1464C14.9473 15.2402 15 15.3674 15 15.5C15 15.6326 14.9473 15.7598 14.8536 15.8536C14.7598 15.9473 14.6326 16 14.5 16H10.5C10.3674 16 10.2402 15.9473 10.1464 15.8536C10.0527 15.7598 10 15.6326 10 15.5ZM10.5 17C10.3674 17 10.2402 17.0527 10.1464 17.1464C10.0527 17.2402 10 17.3674 10 17.5C10 17.6326 10.0527 17.7598 10.1464 17.8536C10.2402 17.9473 10.3674 18 10.5 18H14.5C14.6326 18 14.7598 17.9473 14.8536 17.8536C14.9473 17.7598 15 17.6326 15 17.5C15 17.3674 14.9473 17.2402 14.8536 17.1464C14.7598 17.0527 14.6326 17 14.5 17H10.5ZM10 22C10 21.8674 10.0527 21.7402 10.1464 21.6464C10.2402 21.5527 10.3674 21.5 10.5 21.5H14.5C14.6326 21.5 14.7598 21.5527 14.8536 21.6464C14.9473 21.7402 15 21.8674 15 22C15 22.1326 14.9473 22.2598 14.8536 22.3536C14.7598 22.4473 14.6326 22.5 14.5 22.5H10.5C10.3674 22.5 10.2402 22.4473 10.1464 22.3536C10.0527 22.2598 10 22.1326 10 22ZM10.5 23.5C10.3674 23.5 10.2402 23.5527 10.1464 23.6464C10.0527 23.7402 10 23.8674 10 24C10 24.1326 10.0527 24.2598 10.1464 24.3536C10.2402 24.4473 10.3674 24.5 10.5 24.5H14.5C14.6326 24.5 14.7598 24.4473 14.8536 24.3536C14.9473 24.2598 15 24.1326 15 24C15 23.8674 14.9473 23.7402 14.8536 23.6464C14.7598 23.5527 14.6326 23.5 14.5 23.5H10.5Z" fill="#757575"/>
<path fill-rule="evenodd" clip-rule="evenodd" d="M5 21.5C5 21.3674 5.05268 21.2402 5.14645 21.1464C5.24021 21.0527 5.36739 21 5.5 21H8C8.13261 21 8.25979 21.0527 8.35355 21.1464C8.44732 21.2402 8.5 21.3674 8.5 21.5V24C8.5 24.1326 8.44732 24.2598 8.35355 24.3536C8.25979 24.4473 8.13261 24.5 8 24.5H5.5C5.36739 24.5 5.24021 24.4473 5.14645 24.3536C5.05268 24.2598 5 24.1326 5 24V21.5ZM6 22V23.5H7.5V22H6Z" fill="#757575"/>
<path d="M8.85346 15.8535C8.94454 15.7592 8.99494 15.6329 8.9938 15.5018C8.99266 15.3707 8.94007 15.2453 8.84737 15.1526C8.75466 15.0599 8.62926 15.0073 8.49816 15.0062C8.36706 15.005 8.24076 15.0554 8.14646 15.1465L6.49996 16.793L5.85346 16.1465C5.75916 16.0554 5.63286 16.005 5.50176 16.0062C5.37066 16.0073 5.24525 16.0599 5.15255 16.1526C5.05985 16.2453 5.00726 16.3707 5.00612 16.5018C5.00498 16.6329 5.05538 16.7592 5.14646 16.8535L6.49996 18.207L8.85346 15.8535Z" fill="#757575"/>
<path fill-rule="evenodd" clip-rule="evenodd" d="M5 11C4.46957 11 3.96086 11.2107 3.58579 11.5858C3.21071 11.9609 3 12.4696 3 13V27C3 27.5304 3.21071 28.0391 3.58579 28.4142C3.96086 28.7893 4.46957 29 5 29H15C15.5304 29 16.0391 28.7893 16.4142 28.4142C16.7893 28.0391 17 27.5304 17 27V13C17 12.4696 16.7893 11.9609 16.4142 11.5858C16.0391 11.2107 15.5304 11 15 11H5ZM4 13C4 12.7348 4.10536 12.4804 4.29289 12.2929C4.48043 12.1054 4.73478 12 5 12H15C15.2652 12 15.5196 12.1054 15.7071 12.2929C15.8946 12.4804 16 12.7348 16 13V27C16 27.2652 15.8946 27.5196 15.7071 27.7071C15.5196 27.8946 15.2652 28 15 28H5C4.73478 28 4.48043 27.8946 4.29289 27.7071C4.10536 27.5196 4 27.2652 4 27V13ZM18 16C18 15.6022 18.158 15.2206 18.4393 14.9393C18.7206 14.658 19.1022 14.5 19.5 14.5C19.8978 14.5 20.2794 14.658 20.5607 14.9393C20.842 15.2206 21 15.6022 21 16V26.1515L19.5 28.4015L18 26.1515V16ZM19.5 15.5C19.3674 15.5 19.2402 15.5527 19.1464 15.6464C19.0527 15.7402 19 15.8674 19 16V17H20V16C20 15.8674 19.9473 15.7402 19.8536 15.6464C19.7598 15.5527 19.6326 15.5 19.5 15.5ZM19.5 26.5985L19 25.8485V18H20V25.8485L19.5 26.5985Z" fill="#757575"/>
</svg>
