<svg width="36" height="36" viewBox="0 0 36 36" fill="none" xmlns="http://www.w3.org/2000/svg">
<path d="M3.39022 28.4225L6.22639 12.3377C6.27951 12.0359 6.39157 11.7474 6.55617 11.4889C6.72078 11.2304 6.9347 11.0068 7.18573 10.831C7.43675 10.6551 7.71996 10.5305 8.01917 10.4641C8.31838 10.3977 8.62773 10.391 8.92956 10.4442L22.7172 12.8767C23.3266 12.9842 23.8683 13.3294 24.2232 13.8364C24.5781 14.3433 24.7171 14.9705 24.6096 15.5799L21.7734 31.6647C21.7203 31.9665 21.6082 32.255 21.4436 32.5135C21.279 32.772 21.0651 32.9956 20.8141 33.1714C20.563 33.3473 20.2798 33.4719 19.9806 33.5383C19.6814 33.6046 19.3721 33.6114 19.0702 33.5582L5.28256 31.1257C4.67317 31.0181 4.13145 30.6729 3.77658 30.166C3.4217 29.6591 3.28273 29.0319 3.39022 28.4225Z" stroke="#757575" stroke-width="1.5"/>
<path d="M10.4171 15.4457L19.6093 17.0662M9.6063 20.0412L18.7985 21.6628M8.79663 24.6367L14.5413 25.6505" stroke="#757575" stroke-width="1.5" stroke-linecap="round"/>
<path d="M25 13.7109L20.1484 8.85156L20.8516 8.14844L25 12.2891L35.1484 2.14844L35.8516 2.85156L25 13.7109Z" fill="#757575"/>
</svg>
