<svg width="41" height="39" viewBox="0 0 41 39" fill="none" xmlns="http://www.w3.org/2000/svg">
<path d="M3.39022 31.4225L6.22639 15.3377C6.27951 15.0359 6.39157 14.7474 6.55617 14.4889C6.72078 14.2304 6.9347 14.0068 7.18573 13.831C7.43675 13.6551 7.71996 13.5305 8.01917 13.4641C8.31838 13.3977 8.62773 13.391 8.92956 13.4442L22.7172 15.8767C23.3266 15.9842 23.8683 16.3294 24.2232 16.8364C24.5781 17.3433 24.7171 17.9705 24.6096 18.5799L21.7734 34.6647C21.7203 34.9665 21.6082 35.255 21.4436 35.5135C21.279 35.772 21.0651 35.9956 20.8141 36.1714C20.563 36.3473 20.2798 36.4719 19.9806 36.5383C19.6814 36.6046 19.3721 36.6114 19.0702 36.5582L5.28256 34.1257C4.67317 34.0181 4.13145 33.6729 3.77658 33.166C3.4217 32.6591 3.28273 32.0319 3.39022 31.4225Z" stroke="#757575" stroke-width="1.5"/>
<path d="M10.4171 18.4457L19.6093 20.0662M9.6063 23.0412L18.7985 24.6628M8.79663 27.6367L14.5413 28.6505" stroke="#757575" stroke-width="1.5" stroke-linecap="round"/>
<path d="M36 6.41L34.59 5L29 10.59L23.41 5L22 6.41L27.59 12L22 17.59L23.41 19L29 13.41L34.59 19L36 17.59L30.41 12L36 6.41Z" fill="#757575"/>
</svg>
