<svg width="24" height="24" viewBox="0 0 24 24" fill="none"
  xmlns="http://www.w3.org/2000/svg">
  <path d="M20 19C20.2652 19 20.5196 19.1054 20.7071 19.2929C20.8946 19.4804 21 19.7348 21 20C21 20.2652 20.8946 20.5196 20.7071 20.7071C20.5196 20.8947 20.2652 21 20 21H4C3.73478 21 3.48043 20.8947 3.29289 20.7071C3.10536 20.5196 3 20.2652 3 20C3 19.7348 3.10536 19.4804 3.29289 19.2929C3.48043 19.1054 3.73478 19 4 19H20ZM20 15C20.2652 15 20.5196 15.1054 20.7071 15.2929C20.8946 15.4804 21 15.7348 21 16C21 16.2652 20.8946 16.5196 20.7071 16.7071C20.5196 16.8947 20.2652 17 20 17H4C3.73478 17 3.48043 16.8947 3.29289 16.7071C3.10536 16.5196 3 16.2652 3 16C3 15.7348 3.10536 15.4804 3.29289 15.2929C3.48043 15.1054 3.73478 15 4 15H20ZM20 11C20.2652 11 20.5196 11.1054 20.7071 11.2929C20.8946 11.4804 21 11.7348 21 12C21 12.2652 20.8946 12.5196 20.7071 12.7071C20.5196 12.8947 20.2652 13 20 13H14C13.7348 13 13.4804 12.8947 13.2929 12.7071C13.1054 12.5196 13 12.2652 13 12C13 11.7348 13.1054 11.4804 13.2929 11.2929C13.4804 11.1054 13.7348 11 14 11H20ZM20 7.00002C20.2652 7.00002 20.5196 7.10537 20.7071 7.29291C20.8946 7.48045 21 7.7348 21 8.00002C21 8.26523 20.8946 8.51959 20.7071 8.70712C20.5196 8.89466 20.2652 9.00002 20 9.00002H14C13.7348 9.00002 13.4804 8.89466 13.2929 8.70712C13.1054 8.51959 13 8.26523 13 8.00002C13 7.7348 13.1054 7.48045 13.2929 7.29291C13.4804 7.10537 13.7348 7.00002 14 7.00002H20ZM20 3.00002C20.2652 3.00002 20.5196 3.10537 20.7071 3.29291C20.8946 3.48045 21 3.7348 21 4.00002C21 4.26523 20.8946 4.51959 20.7071 4.70712C20.5196 4.89466 20.2652 5.00002 20 5.00002H14C13.7348 5.00002 13.4804 4.89466 13.2929 4.70712C13.1054 4.51959 13 4.26523 13 4.00002C13 3.7348 13.1054 3.48045 13.2929 3.29291C13.4804 3.10537 13.7348 3.00002 14 3.00002H20ZM6.265 3.08902C6.48633 3.05302 6.713 3.02935 6.945 3.01802C7.3453 2.99391 7.7467 2.99391 8.147 3.01802C8.357 3.03002 8.575 3.05368 8.801 3.08902L12 12.742C11.8076 12.84 11.6006 12.9062 11.387 12.938C11.1443 12.9793 10.937 13 10.765 13C10.4943 13 10.2457 12.9433 10.019 12.83C9.799 12.718 9.62233 12.4333 9.489 11.976L8.229 7.92402L7.972 6.97102L7.707 5.92102C7.62433 5.57102 7.547 5.24768 7.475 4.95102H7.384L7.011 6.37502C6.87767 6.90302 6.75333 7.36302 6.638 7.75502L5.038 12.866C4.73028 12.9313 4.41657 12.9642 4.102 12.964C3.91347 12.9641 3.72523 12.9494 3.539 12.92C3.38216 12.8986 3.22884 12.8566 3.083 12.795L3 12.671L6.265 3.08902ZM6.331 10.925H6.075C5.97278 10.9189 5.8704 10.9159 5.768 10.916C5.68242 10.9108 5.59673 10.9078 5.511 10.907H4.55L5.238 9.05502H6.307C6.407 9.04902 6.50367 9.04601 6.597 9.04601C6.697 9.04001 6.777 9.03701 6.837 9.03701H8.047C8.113 9.03701 8.18767 9.04035 8.271 9.04702C8.359 9.04702 8.44467 9.04968 8.528 9.05502H9.646L10.268 10.907H9.273C9.19025 10.9078 9.10754 10.9111 9.025 10.917C8.925 10.917 8.82567 10.9197 8.727 10.925H6.331Z" fill="#1E1E1E"/>
</svg>
