<svg width="37" height="36" viewBox="0 0 37 36" fill="none" xmlns="http://www.w3.org/2000/svg">
<path d="M18 9V21L25.18 30.14C25.5298 30.5826 25.7476 31.1148 25.8086 31.6756C25.8696 32.2364 25.7713 32.803 25.5249 33.3105C25.2785 33.8179 24.894 34.2456 24.4156 34.5444C23.9371 34.8433 23.3841 35.0012 22.82 35H5.18003C4.61593 35.0012 4.06294 34.8433 3.5845 34.5444C3.10607 34.2456 2.72159 33.8179 2.47518 33.3105C2.22877 32.803 2.13042 32.2364 2.19142 31.6756C2.25242 31.1148 2.47029 30.5826 2.82003 30.14L10 21V9M7.00003 9H21" stroke="#757575" stroke-linecap="round" stroke-linejoin="round"/>
<path d="M26 13.7109L21.1484 8.85156L21.8516 8.14844L26 12.2891L36.1484 2.14844L36.8516 2.85156L26 13.7109Z" fill="#757575"/>
</svg>
