<svg width="40" height="40" viewBox="0 0 40 40" fill="none" xmlns="http://www.w3.org/2000/svg">
<path d="M18 13V25L25.18 34.14C25.5298 34.5826 25.7476 35.1148 25.8086 35.6756C25.8696 36.2364 25.7713 36.803 25.5249 37.3105C25.2785 37.8179 24.894 38.2456 24.4156 38.5444C23.9371 38.8433 23.3841 39.0012 22.82 39H5.18003C4.61593 39.0012 4.06294 38.8433 3.5845 38.5444C3.10607 38.2456 2.72159 37.8179 2.47518 37.3105C2.22877 36.803 2.13042 36.2364 2.19142 35.6756C2.25242 35.1148 2.47029 34.5826 2.82003 34.14L10 25V13M7.00003 13H21" stroke="#757575" stroke-linecap="round" stroke-linejoin="round"/>
<path d="M35 6.41L33.59 5L28 10.59L22.41 5L21 6.41L26.59 12L21 17.59L22.41 19L28 13.41L33.59 19L35 17.59L29.41 12L35 6.41Z" fill="#757575"/>
</svg>
