<svg width="46" height="42" viewBox="0 0 46 42" fill="none" xmlns="http://www.w3.org/2000/svg">
<path d="M18.5 7.3125C16.3534 7.3125 14.2947 8.16523 12.7769 9.6831C11.259 11.201 10.4063 13.2597 10.4062 15.4062C10.4063 17.5528 11.259 19.6115 12.7769 21.1294C14.2947 22.6473 16.3534 23.5 18.5 23.5C20.6466 23.5 22.7053 22.6473 24.2231 21.1294C25.741 19.6115 26.5938 17.5528 26.5938 15.4062C26.5938 13.2597 25.741 11.201 24.2231 9.6831C22.7053 8.16523 20.6466 7.3125 18.5 7.3125ZM11.5625 15.4062C11.5625 13.5663 12.2934 11.8017 13.5944 10.5007C14.8955 9.19966 16.6601 8.46875 18.5 8.46875C20.3399 8.46875 22.1045 9.19966 23.4056 10.5007C24.7066 11.8017 25.4375 13.5663 25.4375 15.4062C25.4375 17.2462 24.7066 19.0108 23.4056 20.3118C22.1045 21.6128 20.3399 22.3438 18.5 22.3438C16.6601 22.3438 14.8955 21.6128 13.5944 20.3118C12.2934 19.0108 11.5625 17.2462 11.5625 15.4062ZM8.67188 25.8125C7.59858 25.8125 6.56924 26.2389 5.8103 26.9978C5.05137 27.7567 4.625 28.7861 4.625 29.8594V30.6306C4.625 33.1165 7.82319 39.6875 18.5 39.6875C29.1768 39.6875 32.375 33.1154 32.375 30.6306V29.8594C32.375 28.7861 31.9486 27.7567 31.1897 26.9978C30.4308 26.2389 29.4014 25.8125 28.3281 25.8125H8.67188ZM5.78125 29.8594C5.78125 29.0927 6.0858 28.3575 6.62789 27.8154C7.16999 27.2733 7.90523 26.9688 8.67188 26.9688H28.3281C29.0948 26.9688 29.83 27.2733 30.3721 27.8154C30.9142 28.3575 31.2188 29.0927 31.2188 29.8594V30.6306C31.2188 32.3846 28.6345 38.5312 18.5 38.5312C8.36547 38.5312 5.78125 32.3846 5.78125 30.6306V29.8594Z" fill="#575757"/>
<path d="M28 12H40M34 18V6" stroke="#757575" stroke-width="1.5" stroke-miterlimit="10" stroke-linecap="round" stroke-linejoin="round"/>
</svg>
